<svg width="7680" height="4320" viewBox="0 0 7680 4320" fill="none" xmlns="http://www.w3.org/2000/svg">
<g clip-path="url(#clip0)">
<rect width="7680" height="4320" fill="white"/>
<path d="M6456.73 4113.23C6578.13 4181.43 6708.73 4235.83 6774.93 4333.43C6840.93 4430.83 6842.53 4571.03 6839.33 4709.63C6836.13 4848.03 6828.13 4984.83 6773.33 5101.63C6718.53 5218.63 6616.93 5315.83 6498.53 5374.83C6380.13 5433.83 6245.13 5454.63 6117.93 5441.03C5990.73 5427.43 5871.53 5379.43 5769.53 5311.03C5667.73 5242.43 5583.13 5153.43 5492.93 5050.03C5402.53 4946.83 5306.33 4829.03 5298.33 4706.83C5290.13 4584.43 5370.13 4457.43 5450.53 4336.83C5530.93 4216.03 5611.53 4101.83 5721.53 4027.03C5831.53 3952.03 5970.73 3916.83 6096.73 3940.03C6222.73 3963.23 6335.13 4045.03 6456.73 4113.23Z" fill="#374873"/>
<path d="M7566.13 2062.99C7672.73 2099.19 7737.13 2233.79 7812.73 2362.39C7888.33 2491.19 7975.33 2614.19 7995.33 2748.59C8015.13 2883.19 7968.13 3029.19 7870.33 3119.79C7772.73 3210.39 7624.53 3245.79 7498.13 3288.19C7371.73 3330.39 7266.93 3379.79 7157.13 3388.79C7047.33 3397.79 6932.33 3366.19 6808.13 3322.59C6684.13 3278.99 6550.73 3222.99 6486.73 3123.39C6422.53 3023.79 6427.33 2880.59 6470.33 2761.99C6513.33 2643.39 6594.13 2549.59 6641.73 2421.19C6689.13 2292.79 6703.33 2129.59 6784.53 2078.79C6865.73 2027.99 7013.93 2089.59 7162.53 2089.39C7310.93 2088.99 7459.73 2026.79 7566.13 2062.99Z" fill="#374873"/>
<path d="M6801.34 -329.807C6908.74 -256.207 6973.54 -120.407 7025.54 9.39264C7077.54 139.393 7116.74 263.393 7120.54 389.593C7124.14 515.793 7092.54 643.993 7021.74 741.393C6950.94 838.993 6841.14 905.393 6730.14 967.993C6618.94 1030.39 6506.54 1088.99 6385.14 1103.99C6263.94 1119.19 6133.94 1090.99 6014.14 1033.59C5894.34 975.993 5784.74 889.193 5716.34 776.593C5648.14 663.993 5620.94 525.793 5631.34 393.393C5641.74 260.993 5689.74 134.793 5748.74 5.99265C5807.74 -122.807 5877.74 -254.007 5987.14 -326.407C6096.54 -399.007 6245.34 -412.807 6394.54 -414.007C6543.94 -415.007 6693.94 -403.607 6801.34 -329.807Z" fill="#45598C"/>
<path d="M851.165 -240.322C954.565 -163.922 1030.56 -56.9224 1115.36 56.2776C1199.96 169.478 1293.16 288.678 1296.96 410.278C1300.76 531.678 1214.96 655.478 1119.36 749.878C1023.96 844.278 918.765 909.278 811.565 982.878C704.565 1056.28 595.565 1138.28 467.165 1171.68C338.965 1205.08 191.165 1190.28 108.165 1102.88C24.9648 1015.68 6.36484 855.878 -31.2352 727.878C-68.6352 600.078 -125.035 504.078 -123.035 409.278C-121.235 314.278 -60.8352 220.478 -21.4352 96.0776C18.1648 -28.3224 36.7648 -183.322 117.965 -272.522C199.165 -361.522 342.965 -384.722 479.965 -373.522C617.165 -362.322 747.965 -316.522 851.165 -240.322Z" fill="#45598C"/>
<path d="M940.451 3818.32C1023.85 3908.12 1093.05 3980.92 1191.85 4065.52C1290.65 4150.12 1419.25 4246.32 1438.45 4353.92C1457.85 4461.32 1368.05 4580.12 1284.45 4690.92C1200.65 4801.72 1123.25 4904.72 1020.45 4939.12C917.651 4973.72 789.651 4939.52 651.451 4957.12C513.251 4974.72 365.051 5044.12 235.451 5025.12C105.851 5006.32 -5.14941 4898.92 -42.9494 4770.52C-80.7494 4642.12 -45.5494 4492.32 -6.34943 4365.32C32.8506 4238.32 76.2505 4134.12 113.251 4004.12C150.251 3874.32 180.851 3718.72 271.251 3632.92C361.651 3547.12 511.651 3530.92 635.451 3576.32C759.251 3621.52 857.051 3728.32 940.451 3818.32Z" fill="#45598C"/>
<path d="M6051.88 2007.33C6173.88 2034.13 6276.88 2137.93 6304.88 2260.33C6332.88 2382.73 6285.88 2523.73 6277.88 2660.13C6269.88 2796.33 6300.48 2928.13 6249.28 3010.13C6197.88 3092.13 6064.48 3124.33 5950.48 3191.53C5836.48 3258.73 5741.68 3360.73 5645.08 3364.13C5548.48 3367.53 5449.68 3272.53 5319.88 3214.53C5189.88 3156.53 5028.88 3135.53 4971.88 3050.13C4914.88 2964.73 4961.88 2814.73 4974.88 2672.33C4987.88 2529.73 4966.68 2394.73 5026.28 2313.53C5085.68 2232.33 5225.68 2204.93 5342.68 2175.13C5459.48 2145.33 5553.28 2112.93 5670.88 2071.73C5788.48 2030.53 5929.68 1980.53 6051.88 2007.33Z" fill="#95A1BF"/>
<path d="M1686.07 1305.03C1785.07 1363.63 1867.47 1449.63 1958.47 1549.83C2049.67 1650.03 2149.67 1764.23 2135.87 1870.63C2122.07 1977.03 1994.27 2075.23 1907.67 2183.23C1821.07 2291.23 1775.27 2408.83 1690.07 2487.03C1605.07 2565.23 1480.27 2603.83 1371.07 2577.03C1261.87 2550.43 1168.07 2458.03 1038.27 2405.83C908.267 2353.43 742.267 2341.03 650.867 2259.83C559.467 2178.63 542.467 2028.63 554.067 1885.23C565.667 1742.03 605.667 1605.23 676.067 1487.83C746.667 1370.23 847.667 1272.03 966.067 1224.63C1084.27 1177.43 1220.07 1181.03 1345.67 1198.23C1471.27 1215.63 1587.07 1246.63 1686.07 1305.03Z" fill="#95A1BF"/>
<path d="M4285.29 3636.63C4382.69 3730.43 4447.89 3842.43 4532.09 3954.63C4616.29 4067.03 4719.29 4179.43 4719.29 4292.03C4719.09 4404.43 4615.69 4516.63 4529.09 4625.03C4442.69 4733.23 4373.09 4837.43 4275.69 4923.83C4178.49 5010.43 4053.49 5079.23 3924.49 5086.23C3795.49 5093.03 3662.49 5038.03 3560.49 4954.23C3458.69 4870.43 3387.89 4757.63 3323.69 4642.63C3259.49 4527.43 3202.09 4409.63 3192.29 4286.43C3182.29 4163.03 3220.29 4034.03 3287.09 3923.43C3353.89 3812.83 3449.69 3720.83 3561.49 3635.23C3673.09 3549.83 3800.89 3470.83 3929.49 3469.23C4058.09 3467.43 4187.89 3542.83 4285.29 3636.63Z" fill="#95A1BF"/>
<path d="M2618.62 2612.82C2733.62 2641.82 2855.42 2696.22 2925.82 2789.82C2996.02 2883.22 3015.02 3016.02 3024.42 3154.02C3034.02 3292.22 3034.22 3436.02 2976.02 3550.62C2917.82 3665.22 2801.42 3750.62 2676.82 3824.22C2552.42 3897.62 2420.22 3959.22 2282.22 3969.02C2144.22 3978.82 2000.42 3937.02 1870.62 3866.62C1740.62 3796.22 1624.62 3697.42 1578.02 3573.02C1531.62 3448.62 1554.62 3298.62 1603.42 3176.82C1652.02 3054.82 1726.42 2961.02 1770.82 2833.22C1815.42 2705.42 1830.02 2543.42 1911.22 2494.82C1992.42 2446.42 2140.22 2511.62 2268.02 2545.82C2395.82 2580.22 2503.82 2583.82 2618.62 2612.82Z" fill="#CCD3E6"/>
<path d="M4257.75 1899.89C4343.15 1980.29 4420.35 2043.89 4523.35 2125.09C4626.55 2206.29 4755.55 2305.09 4797.15 2427.69C4838.75 2550.29 4792.75 2697.09 4715.75 2823.49C4638.75 2949.89 4530.75 3056.09 4403.75 3094.49C4276.75 3132.69 4130.75 3103.29 3995.75 3084.09C3860.75 3065.09 3736.75 3056.49 3652.95 2993.29C3569.35 2929.89 3525.95 2811.89 3457.55 2704.49C3389.15 2597.09 3295.95 2500.29 3278.35 2393.49C3260.75 2286.69 3318.75 2169.69 3387.15 2062.29C3455.55 1954.89 3534.15 1857.09 3635.35 1785.89C3736.75 1714.89 3860.75 1670.29 3969.55 1696.49C4078.55 1722.69 4172.35 1819.49 4257.75 1899.89Z" fill="#CCD3E6"/>
<path d="M5021.55 144.236C5144.75 199.836 5256.75 290.636 5318.75 407.436C5380.75 524.036 5392.75 666.236 5399.55 812.436C5406.15 958.636 5407.15 1108.64 5345.55 1225.84C5283.95 1343.04 5159.35 1427.44 5029.55 1465.04C4899.55 1502.44 4764.35 1493.04 4628.15 1494.44C4491.95 1496.04 4354.95 1508.24 4234.55 1465.24C4114.15 1422.24 4010.35 1323.84 3946.95 1205.24C3883.35 1086.64 3860.15 947.636 3853.35 804.636C3846.35 661.636 3855.75 514.636 3931.35 417.036C4007.15 319.436 4148.95 271.436 4276.35 218.236C4403.55 165.036 4516.35 106.836 4639.95 87.8364C4763.55 68.6364 4898.35 88.8363 5021.55 144.236Z" fill="#CCD3E6"/>
<path d="M2789.8 -474.978C2908.8 -424.978 3030.2 -360.778 3120.2 -259.978C3210 -159.178 3268 -21.9783 3257.6 109.422C3247.2 240.822 3168.4 366.022 3078.8 467.222C2989 568.222 2888.6 644.822 2780 730.622C2671.6 816.222 2554.8 910.822 2440.2 907.222C2325.6 903.622 2213.2 801.822 2112.2 711.822C2011.2 621.822 1921.6 543.622 1827.8 446.222C1734 348.822 1636.2 232.022 1635.2 115.022C1634.4 -2.17841 1730.6 -119.978 1810.6 -241.178C1890.6 -362.378 1954.4 -487.178 2056.2 -546.978C2158.2 -606.978 2298.2 -601.778 2426.4 -581.178C2554.6 -560.778 2670.8 -524.978 2789.8 -474.978Z" fill="#374873"/>
</g>
<defs>
<clipPath id="clip0">
<rect width="7680" height="4320" fill="white"/>
</clipPath>
</defs>
</svg>
