<svg id="visual" viewBox="0 0 900 600" width="900" height="600" xmlns="http://www.w3.org/2000/svg" xmlns:xlink="http://www.w3.org/1999/xlink" version="1.1"><g><g transform="translate(361 572)"><path d="M98.5 -121C117.1 -101.8 114.4 -60.7 110.6 -27.6C106.8 5.5 101.8 30.7 90.9 55.3C80.1 79.9 63.3 103.9 36.8 122.9C10.4 142 -25.8 156.1 -64.8 152.8C-103.8 149.5 -145.6 128.9 -154.3 97.1C-163 65.4 -138.6 22.6 -127.9 -19.9C-117.2 -62.4 -120.2 -104.7 -101.2 -123.8C-82.2 -143 -41.1 -139.1 -0.6 -138.4C39.9 -137.7 79.9 -140.3 98.5 -121Z" fill="#95A1BF"></path></g><g transform="translate(885 285)"><path d="M108 -137C132 -108.5 138 -67 143.1 -26.8C148.3 13.3 152.7 52 140.4 88.2C128 124.3 98.8 157.9 66.2 160.3C33.6 162.8 -2.4 134.2 -45.3 120.4C-88.2 106.6 -138 107.5 -152.2 86.2C-166.4 65 -145 21.6 -127.5 -12.9C-110 -47.4 -96.4 -73 -75.8 -102.1C-55.2 -131.2 -27.6 -163.8 7.2 -172.3C42 -180.9 84 -165.5 108 -137Z" fill="#95A1BF"></path></g><g transform="translate(446 56)"><path d="M77.4 -89C100.1 -73.1 118.3 -48.6 119.7 -23.6C121.2 1.4 105.8 26.8 90.3 50.6C74.7 74.4 59 96.5 36.8 107.2C14.7 117.8 -13.8 117 -32.1 103.6C-50.3 90.2 -58.4 64.3 -68.8 41.9C-79.2 19.4 -91.9 0.5 -95.1 -22.9C-98.3 -46.4 -92.1 -74.3 -74.6 -91.1C-57.2 -107.9 -28.6 -113.6 -0.6 -112.8C27.3 -112.1 54.6 -104.9 77.4 -89Z" fill="#95A1BF"></path></g><g transform="translate(7 98)"><path d="M90.3 -99.6C115 -86.9 131.6 -56.5 131.5 -27.6C131.4 1.4 114.6 29 95.2 47.8C75.8 66.7 53.8 77 29.7 88.8C5.7 100.6 -20.3 114 -46.3 111.4C-72.3 108.8 -98.3 90.3 -112.9 65.1C-127.5 40 -130.7 8.2 -126.7 -23.7C-122.7 -55.6 -111.5 -87.6 -89.2 -100.7C-66.9 -113.9 -33.4 -108.2 -0.3 -107.8C32.8 -107.5 65.6 -112.4 90.3 -99.6Z" fill="#95A1BF"></path></g></g></svg>