<svg width="7680" height="4320" viewBox="0 0 7680 4320" fill="none" xmlns="http://www.w3.org/2000/svg">
<g clip-path="url(#clip0)">
<rect width="7680" height="4320" fill="white"/>
<path d="M528.725 3634.16C570.425 3679.06 605.025 3715.46 654.425 3757.76C703.825 3800.06 768.125 3848.16 777.725 3901.96C787.425 3955.66 742.525 4015.06 700.725 4070.46C658.825 4125.86 620.125 4177.36 568.725 4194.56C517.325 4211.86 453.325 4194.76 384.225 4203.56C315.125 4212.36 241.025 4247.06 176.225 4237.56C111.425 4228.16 55.9253 4174.46 37.0253 4110.26C18.1253 4046.06 35.7253 3971.16 55.3253 3907.66C74.9253 3844.16 96.6253 3792.06 115.125 3727.06C133.625 3662.16 148.925 3584.36 194.125 3541.46C239.325 3498.56 314.325 3490.46 376.225 3513.16C438.125 3535.76 487.025 3589.16 528.725 3634.16Z" fill="#45598C"/>
<path d="M5914.57 1426.99C5967.87 1445.09 6000.07 1512.39 6037.87 1576.69C6075.67 1641.09 6119.17 1702.59 6129.17 1769.79C6139.07 1837.09 6115.57 1910.09 6066.67 1955.39C6017.87 2000.69 5943.77 2018.39 5880.57 2039.59C5817.37 2060.69 5764.97 2085.39 5710.07 2089.89C5655.17 2094.39 5597.67 2078.59 5535.57 2056.79C5473.57 2034.99 5406.87 2006.99 5374.87 1957.19C5342.77 1907.39 5345.17 1835.79 5366.67 1776.49C5388.17 1717.19 5428.57 1670.29 5452.37 1606.09C5476.07 1541.89 5483.17 1460.29 5523.77 1434.89C5564.37 1409.49 5638.47 1440.29 5712.77 1440.19C5786.97 1439.99 5861.37 1408.89 5914.57 1426.99Z" fill="#374873"/>
<path d="M6821.24 2074.31C6880.24 2088.41 6939.04 2123.01 6962.64 2174.41C6986.34 2225.81 6974.94 2293.91 6975.04 2362.21C6975.24 2430.41 6986.94 2498.81 6971.04 2563.61C6955.04 2628.41 6911.54 2689.71 6852.34 2729.81C6793.24 2770.01 6718.34 2789.01 6651.54 2775.21C6584.74 2761.31 6525.84 2714.61 6479.84 2666.81C6433.74 2619.11 6400.54 2570.31 6383.04 2519.41C6365.64 2468.41 6363.94 2415.31 6345.04 2351.21C6326.14 2287.11 6289.94 2212.11 6307.14 2160.61C6324.24 2109.01 6394.64 2081.01 6459.54 2070.31C6524.54 2059.71 6584.04 2066.41 6643.44 2066.51C6702.84 2066.71 6762.24 2060.21 6821.24 2074.31Z" fill="#95A1BF"/>
<path d="M7296.5 3654.06C7348.5 3684.46 7390.1 3732.36 7433.9 3786.36C7477.7 3840.36 7523.8 3900.36 7525.4 3961.26C7527 4022.16 7484.1 4084.06 7438.6 4135.16C7393.1 4186.26 7345 4226.56 7291.4 4242.56C7237.9 4258.46 7178.9 4250.06 7115.3 4257.96C7051.7 4265.96 6983.6 4290.26 6934.9 4271.46C6886.3 4252.66 6857.2 4190.76 6844.4 4131.76C6831.7 4072.66 6835.3 4016.56 6827.6 3955.96C6820 3895.36 6801.1 3830.36 6822.3 3786.06C6843.6 3741.76 6905 3718.16 6961.3 3690.26C7017.6 3662.46 7068.7 3630.36 7125.5 3620.76C7182.2 3611.06 7244.6 3623.76 7296.5 3654.06Z" fill="#95A1BF"/>
<path d="M7689 2545C7743.6 2576.6 7791.4 2619.9 7833.7 2673C7876 2726.1 7912.9 2789.1 7912.9 2852.1C7912.9 2915.1 7876 2978.1 7840.5 3043.1C7805 3108 7770.9 3174.9 7716.4 3213.2C7661.8 3251.6 7586.8 3261.3 7515.4 3255.1C7444 3248.9 7376.1 3226.7 7313.9 3192.8C7251.7 3158.9 7195.1 3113.3 7176.5 3054.5C7158 2995.8 7177.4 2923.9 7199 2864.6C7220.6 2805.2 7244.4 2758.3 7263.4 2700.3C7282.4 2642.3 7296.6 2573.1 7337.2 2533.4C7377.8 2493.7 7444.8 2483.4 7509 2488.3C7573.1 2493.2 7634.5 2513.3 7689 2545Z" fill="#CCD3E6"/>
<path d="M1246.08 591.839C1297.78 630.039 1335.78 683.539 1378.18 740.139C1420.48 796.739 1467.08 856.339 1468.98 917.139C1470.88 977.839 1427.98 1039.74 1380.18 1086.94C1332.48 1134.14 1279.88 1166.64 1226.28 1203.44C1172.78 1240.14 1118.28 1281.14 1054.08 1297.84C989.982 1314.54 916.082 1307.14 874.582 1263.44C832.982 1219.84 823.682 1139.94 804.882 1075.94C786.182 1012.04 757.982 964.039 758.982 916.639C759.882 869.139 790.082 822.239 809.782 760.039C829.582 697.839 838.882 620.339 879.482 575.739C920.082 531.239 991.982 519.639 1060.48 525.239C1129.08 530.839 1194.48 553.739 1246.08 591.839Z" fill="#45598C"/>
<path d="M5434.02 2566.56C5478.82 2601.06 5504.32 2660.26 5519.22 2715.66C5534.02 2771.16 5538.32 2822.76 5544.82 2878.16C5551.32 2933.66 5560.02 2992.76 5547.42 3052.16C5534.82 3111.46 5500.82 3170.96 5449.52 3198.46C5398.32 3226.06 5329.82 3221.76 5268.92 3208.66C5208.02 3195.46 5154.62 3173.56 5112.92 3140.46C5071.22 3107.36 5041.12 3063.16 5016.32 3016.96C4991.42 2970.76 4971.92 2922.66 4948.62 2861.06C4925.42 2799.46 4898.52 2724.46 4920.02 2672.46C4941.52 2620.56 5011.42 2591.66 5076.32 2568.76C5141.32 2545.96 5201.32 2529.16 5263.32 2525.76C5325.32 2522.26 5389.32 2532.06 5434.02 2566.56Z" fill="#45598C"/>
<path d="M1844.15 -234.776C1907.85 -201.276 1988.65 -193.676 2019.55 -153.076C2050.45 -112.476 2031.45 -38.8764 2032.65 35.5236C2033.75 109.824 2055.05 184.824 2025.85 228.424C1996.65 272.024 1917.15 284.224 1852.15 304.824C1787.25 325.524 1736.85 354.624 1687.65 352.824C1638.35 350.924 1590.25 318.024 1541.75 287.824C1493.25 257.724 1444.35 230.224 1419.45 188.524C1394.55 146.824 1393.55 90.8236 1391.95 33.9236C1390.35 -22.9764 1388.25 -80.8764 1403.05 -139.976C1417.85 -199.176 1449.75 -259.676 1499.75 -301.176C1549.85 -342.576 1618.25 -364.876 1675.85 -346.276C1733.45 -327.676 1780.35 -268.276 1844.15 -234.776Z" fill="#CCD3E6"/>
<path d="M7726.25 678.984C7768.95 725.784 7789.45 789.084 7827.15 845.284C7864.75 901.584 7919.65 950.984 7938.85 1011.38C7958.05 1071.78 7941.55 1143.28 7901.35 1195.08C7861.05 1246.88 7797.05 1279.08 7735.15 1301.28C7673.25 1323.58 7613.35 1335.88 7551.35 1339.68C7489.35 1343.38 7425.25 1338.58 7369.35 1312.78C7313.45 1287.08 7265.95 1240.38 7224.15 1184.88C7182.45 1129.28 7146.45 1064.78 7137.45 995.084C7128.35 925.284 7146.05 850.284 7196.45 809.684C7246.85 769.084 7329.85 762.884 7394.85 728.884C7459.75 694.884 7506.65 633.084 7562.65 617.384C7618.55 601.684 7683.55 632.084 7726.25 678.984Z" fill="#374873"/>
<path d="M231.333 1318.36C292.333 1346.96 347.433 1392.56 386.433 1450.56C425.433 1508.56 448.333 1579.06 432.433 1640.36C416.633 1701.76 361.933 1753.86 312.833 1794.46C263.833 1835.06 220.333 1864.16 175.133 1895.36C130.033 1926.66 83.133 1960.06 28.933 1972.76C-25.267 1985.46 -86.767 1977.26 -144.667 1953.36C-202.567 1929.46 -256.767 1889.76 -278.867 1836.46C-300.967 1783.26 -290.867 1716.36 -273.567 1659.56C-256.267 1602.76 -231.667 1555.86 -216.367 1490.96C-200.967 1425.96 -194.867 1342.96 -154.367 1302.46C-113.767 1262.06 -38.767 1264.36 32.233 1271.26C103.233 1278.16 170.233 1289.76 231.333 1318.36Z" fill="#374873"/>
<path d="M1433.44 2833.67C1494.44 2847.07 1545.94 2898.97 1559.94 2960.17C1573.94 3021.37 1550.44 3091.87 1546.44 3160.07C1542.44 3228.17 1557.74 3294.07 1532.14 3335.07C1506.44 3376.07 1439.74 3392.17 1382.74 3425.77C1325.74 3459.37 1278.34 3510.37 1230.04 3512.07C1181.74 3513.77 1132.34 3466.27 1067.44 3437.27C1002.44 3408.27 921.939 3397.77 893.439 3355.07C864.939 3312.37 888.439 3237.37 894.939 3166.17C901.439 3094.87 890.839 3027.37 920.639 2986.77C950.339 2946.17 1020.34 2932.47 1078.84 2917.57C1137.24 2902.67 1184.14 2886.47 1242.94 2865.87C1301.74 2845.27 1372.34 2820.27 1433.44 2833.67Z" fill="#95A1BF"/>
<path d="M2204.81 3555.41C2262.31 3569.91 2323.21 3597.11 2358.41 3643.91C2393.51 3690.61 2403.01 3757.01 2407.71 3826.01C2412.51 3895.11 2412.61 3967.01 2383.51 4024.31C2354.41 4081.61 2296.21 4124.31 2233.91 4161.11C2171.71 4197.81 2105.61 4228.61 2036.61 4233.51C1967.61 4238.41 1895.71 4217.51 1830.81 4182.31C1765.81 4147.11 1707.81 4097.71 1684.51 4035.51C1661.31 3973.31 1672.81 3898.31 1697.21 3837.41C1721.51 3776.41 1758.71 3729.51 1780.91 3665.61C1803.21 3601.71 1810.51 3520.71 1851.11 3496.41C1891.71 3472.21 1965.61 3504.81 2029.51 3521.91C2093.41 3539.11 2147.41 3540.91 2204.81 3555.41Z" fill="#CCD3E6"/>
<path d="M4362.88 3169.44C4405.58 3209.64 4444.18 3241.44 4495.68 3282.04C4547.28 3322.64 4611.78 3372.04 4632.58 3433.34C4653.38 3494.64 4630.38 3568.04 4591.88 3631.24C4553.38 3694.44 4499.38 3747.54 4435.88 3766.74C4372.38 3785.84 4299.38 3771.14 4231.88 3761.54C4164.38 3752.04 4102.38 3747.74 4060.48 3716.14C4018.68 3684.44 3996.98 3625.44 3962.78 3571.74C3928.58 3518.04 3881.98 3469.64 3873.18 3416.24C3864.38 3362.84 3893.38 3304.34 3927.58 3250.64C3961.78 3196.94 4001.08 3148.04 4051.68 3112.44C4102.38 3076.94 4164.38 3054.64 4218.78 3067.74C4273.28 3080.84 4320.18 3129.24 4362.88 3169.44Z" fill="#CCD3E6"/>
<path d="M4178.03 1746.52C4227.53 1775.82 4268.73 1818.82 4314.23 1868.92C4359.83 1919.02 4409.83 1976.12 4402.93 2029.32C4396.03 2082.52 4332.13 2131.62 4288.83 2185.62C4245.53 2239.62 4222.63 2298.42 4180.03 2337.52C4137.53 2376.62 4075.13 2395.92 4020.53 2382.52C3965.93 2369.22 3919.03 2323.02 3854.13 2296.92C3789.13 2270.72 3706.13 2264.52 3660.43 2223.92C3614.73 2183.32 3606.23 2108.32 3612.03 2036.62C3617.83 1965.02 3637.83 1896.62 3673.03 1837.92C3708.33 1779.12 3758.83 1730.02 3818.03 1706.32C3877.13 1682.72 3945.03 1684.52 4007.83 1693.12C4070.63 1701.82 4128.53 1717.32 4178.03 1746.52Z" fill="#95A1BF"/>
<path d="M4602.27 654.618C4663.87 682.418 4719.87 727.818 4750.87 786.218C4781.87 844.518 4787.87 915.618 4791.27 988.718C4794.57 1061.82 4795.07 1136.82 4764.27 1195.42C4733.47 1254.02 4671.17 1296.22 4606.27 1315.02C4541.27 1333.72 4473.67 1329.02 4405.57 1329.72C4337.47 1330.52 4268.97 1336.62 4208.77 1315.12C4148.57 1293.62 4096.67 1244.42 4064.97 1185.12C4033.17 1125.82 4021.57 1056.32 4018.17 984.818C4014.67 913.318 4019.37 839.818 4057.17 791.018C4095.07 742.218 4165.97 718.218 4229.67 691.618C4293.27 665.018 4349.67 635.918 4411.47 626.418C4473.27 616.818 4540.67 626.918 4602.27 654.618Z" fill="#CCD3E6"/>
<path d="M2131.03 1845.85C2184.43 1883.95 2230.93 1926.85 2269.93 1979.05C2308.93 2031.35 2340.43 2092.95 2340.53 2154.75C2340.73 2216.45 2309.43 2278.35 2274.43 2337.45C2239.43 2396.65 2200.73 2453.15 2147.13 2489.95C2093.63 2526.65 2025.23 2543.65 1953.63 2549.45C1881.93 2555.25 1806.93 2549.75 1758.23 2510.25C1709.53 2470.75 1687.03 2397.05 1661.43 2332.15C1635.73 2267.15 1606.83 2210.95 1591.03 2145.55C1575.23 2080.15 1572.53 2005.65 1602.73 1948.45C1632.83 1891.35 1695.93 1851.55 1760.43 1819.75C1824.93 1788.05 1890.93 1764.35 1954.13 1769.25C2017.23 1774.15 2077.63 1807.65 2131.03 1845.85Z" fill="#45598C"/>
<path d="M3444.4 -164.489C3503.9 -139.489 3564.6 -107.389 3609.6 -56.9892C3654.5 -6.58921 3683.5 62.0108 3678.3 127.711C3673.1 193.411 3633.7 256.011 3588.9 306.611C3544 357.111 3493.8 395.411 3439.5 438.311C3385.3 481.111 3326.9 528.411 3269.6 526.611C3212.3 524.811 3156.1 473.911 3105.6 428.911C3055.1 383.911 3010.3 344.811 2963.4 296.111C2916.5 247.411 2867.6 189.011 2867.1 130.511C2866.7 71.9108 2914.8 13.0108 2954.8 -47.5892C2994.8 -108.189 3026.7 -170.589 3077.6 -200.489C3128.6 -230.489 3198.6 -227.889 3262.7 -217.589C3326.8 -207.389 3384.9 -189.489 3444.4 -164.489Z" fill="#374873"/>
<path d="M3670.15 3507.32C3718.85 3554.22 3751.45 3610.22 3793.55 3666.32C3835.65 3722.52 3887.15 3778.72 3887.15 3835.02C3887.05 3891.22 3835.35 3947.32 3792.05 4001.52C3748.85 4055.62 3714.05 4107.72 3665.35 4150.92C3616.75 4194.22 3554.25 4228.62 3489.75 4232.12C3425.25 4235.52 3358.75 4208.02 3307.75 4166.12C3256.85 4124.22 3221.45 4067.82 3189.35 4010.32C3157.25 3952.72 3128.55 3893.82 3123.65 3832.22C3118.65 3770.52 3137.65 3706.02 3171.05 3650.72C3204.45 3595.42 3252.35 3549.42 3308.25 3506.62C3364.05 3463.92 3427.95 3424.42 3492.25 3423.62C3556.55 3422.72 3621.45 3460.42 3670.15 3507.32Z" fill="#95A1BF"/>
<path d="M5768.17 -12.4037C5821.87 24.3963 5854.27 92.2963 5880.27 157.196C5906.27 222.196 5925.87 284.196 5927.77 347.296C5929.57 410.396 5913.77 474.496 5878.37 523.196C5842.97 571.996 5788.07 605.196 5732.57 636.496C5676.97 667.696 5620.77 696.996 5560.07 704.496C5499.47 712.096 5434.47 697.996 5374.57 669.296C5314.67 640.496 5259.87 597.096 5225.67 540.796C5191.57 484.496 5177.97 415.396 5183.17 349.196C5188.37 282.996 5212.37 219.896 5241.87 155.496C5271.37 91.0963 5306.37 25.4963 5361.07 -10.7037C5415.77 -47.0037 5490.17 -53.9037 5564.77 -54.5037C5639.47 -55.0037 5714.47 -49.3037 5768.17 -12.4037Z" fill="#45598C"/>
<path d="M5812.86 3951.12C5873.56 3985.22 5938.86 4012.42 5971.96 4061.22C6004.96 4109.92 6005.76 4180.02 6004.16 4249.32C6002.56 4318.52 5998.56 4386.92 5971.16 4445.32C5943.76 4503.82 5892.96 4552.42 5833.76 4581.92C5774.56 4611.42 5707.06 4621.82 5643.46 4615.02C5579.86 4608.22 5520.26 4584.22 5469.26 4550.02C5418.36 4515.72 5376.06 4471.22 5330.96 4419.52C5285.76 4367.92 5237.66 4309.02 5233.66 4247.92C5229.56 4186.72 5269.56 4123.22 5309.76 4062.92C5349.96 4002.52 5390.26 3945.42 5445.26 3908.02C5500.26 3870.52 5569.86 3852.92 5632.86 3864.52C5695.86 3876.12 5752.06 3917.02 5812.86 3951.12Z" fill="#374873"/>
</g>
<defs>
<clipPath id="clip0">
<rect width="7680" height="4320" fill="white"/>
</clipPath>
</defs>
</svg>
