<?xml version="1.0" encoding="UTF-8"?>
<svg xmlns="http://www.w3.org/2000/svg" xmlns:xlink="http://www.w3.org/1999/xlink" viewBox="0 0 24 24" width="24px" height="24px">
<g id="surface32939472">
<path style=" stroke:none;fill-rule:nonzero;fill:rgb(100%,100%,100%);fill-opacity:1;" d="M 12 2 L 2.003906 8.601562 L 2 15.398438 L 11.992188 22 L 21.988281 15.398438 L 21.992188 8.601562 Z M 12 14 L 9 12 L 12 10 L 15 12 Z M 13 8.261719 L 13 5.058594 L 19.234375 9.175781 L 16.800781 10.796875 Z M 11 8.261719 L 7.195312 10.796875 L 4.765625 9.175781 L 11 5.058594 Z M 5.394531 12 L 4 12.929688 L 4.003906 11.074219 Z M 7.195312 13.203125 L 11 15.738281 L 11 18.945312 L 4.761719 14.824219 Z M 13 15.738281 L 16.800781 13.203125 L 19.230469 14.820312 L 12.996094 18.9375 L 12.996094 15.738281 Z M 18.605469 12 L 19.992188 11.074219 L 19.988281 12.921875 Z M 18.605469 12 "/>
</g>
</svg>
